<svg width="40" height="37" viewBox="0 0 40 37" fill="none" xmlns="http://www.w3.org/2000/svg"><g clip-path="url(#clip0_378_22)"><path d="M32 12h-5.434l-5.708-9.515a1 1 0 00-1.715 1.03L24.233 12H7.767l5.091-8.485a1 1 0 10-1.714-1.03L5.433 12H0v2h2.17l2.54 13.552A3.001 3.001 0 007.66 30h16.68a3 3 0 002.948-2.447L29.83 14H32v-2zm-6.678 15.185a.999.999 0 01-.982.815H7.66a1 1 0 01-.983-.816L4.205 14h23.59l-2.473 13.185z" fill="#fff"/></g><circle cx="32" cy="29" r="8" fill="#FCB500"/><path d="M32.746 33a.303.303 0 01-.204-.072.303.303 0 01-.072-.204v-6.72l-1.992 1.536a.272.272 0 01-.18.072c-.072 0-.14-.04-.204-.12l-.312-.396a.288.288 0 01-.06-.168c0-.096.04-.172.12-.228l2.616-2.016a.569.569 0 01.312-.084h.612a.24.24 0 01.192.084.24.24 0 01.084.192v7.848c0 .08-.028.148-.084.204a.26.26 0 01-.192.072h-.636z" fill="#000"/><defs><clipPath id="clip0_378_22"><path fill="#fff" d="M0 0h32v32H0z"/></clipPath></defs></svg>